<svg width="28" height="27" viewBox="0 0 28 27" fill="none" xmlns="http://www.w3.org/2000/svg">
<g id="Group" filter="url(#filter0_d_2699_1792)">
<path id="Vector" d="M22.1242 0.493896H5.87578C3.73524 0.493896 2 2.23001 2 4.37162V20.6282C2 22.7698 3.73524 24.5059 5.87578 24.5059H22.1242C24.2648 24.5059 26 22.7698 26 20.6282V4.37162C26 2.23001 24.2648 0.493896 22.1242 0.493896Z" fill="url(#paint0_linear_2699_1792)"/>
<g id="Group_2" filter="url(#filter1_i_2699_1792)">
<path id="Vector_2" d="M9.14575 19.286V5.72754H14.4923C15.5201 5.72754 16.3958 5.92392 17.1193 6.31673C17.8427 6.70513 18.3941 7.24578 18.7735 7.93873C19.1573 8.62725 19.3492 9.42166 19.3492 10.322C19.3492 11.2224 19.1551 12.0169 18.7669 12.7054C18.3787 13.3939 17.8163 13.9301 17.0796 14.3141C16.3473 14.6981 15.4606 14.8901 14.4195 14.8901H11.0118V12.5928H13.9563C14.5077 12.5928 14.9621 12.4979 15.3194 12.3081C15.6812 12.114 15.9502 11.8469 16.1267 11.5071C16.3076 11.1628 16.398 10.7678 16.398 10.322C16.398 9.87185 16.3076 9.47905 16.1267 9.14362C15.9502 8.80376 15.6812 8.54116 15.3194 8.35581C14.9577 8.16603 14.4989 8.07114 13.9431 8.07114H12.0109V19.286H9.14575Z" fill="white"/>
</g>
<path id="Vector_3" d="M22.1243 0.941406H5.87584C3.98229 0.941406 2.44727 2.4772 2.44727 4.3717V20.6283C2.44727 22.5228 3.98229 24.0586 5.87584 24.0586H22.1243C24.0178 24.0586 25.5529 22.5228 25.5529 20.6283V4.3717C25.5529 2.4772 24.0178 0.941406 22.1243 0.941406Z" stroke="#EBEBEB"/>
</g>
<defs>
<filter id="filter0_d_2699_1792" x="0.947266" y="0.441406" width="26.1055" height="26.1172" filterUnits="userSpaceOnUse" color-interpolation-filters="sRGB">
<feFlood flood-opacity="0" result="BackgroundImageFix"/>
<feColorMatrix in="SourceAlpha" type="matrix" values="0 0 0 0 0 0 0 0 0 0 0 0 0 0 0 0 0 0 127 0" result="hardAlpha"/>
<feOffset dy="1"/>
<feGaussianBlur stdDeviation="0.5"/>
<feComposite in2="hardAlpha" operator="out"/>
<feColorMatrix type="matrix" values="0 0 0 0 0 0 0 0 0 0 0 0 0 0 0 0 0 0 0.25 0"/>
<feBlend mode="normal" in2="BackgroundImageFix" result="effect1_dropShadow_2699_1792"/>
<feBlend mode="normal" in="SourceGraphic" in2="effect1_dropShadow_2699_1792" result="shape"/>
</filter>
<filter id="filter1_i_2699_1792" x="9.14575" y="5.72754" width="10.2034" height="13.5583" filterUnits="userSpaceOnUse" color-interpolation-filters="sRGB">
<feFlood flood-opacity="0" result="BackgroundImageFix"/>
<feBlend mode="normal" in="SourceGraphic" in2="BackgroundImageFix" result="shape"/>
<feColorMatrix in="SourceAlpha" type="matrix" values="0 0 0 0 0 0 0 0 0 0 0 0 0 0 0 0 0 0 127 0" result="hardAlpha"/>
<feOffset/>
<feGaussianBlur stdDeviation="0.5"/>
<feComposite in2="hardAlpha" operator="arithmetic" k2="-1" k3="1"/>
<feColorMatrix type="matrix" values="0 0 0 0 0 0 0 0 0 0 0 0 0 0 0 0 0 0 0.55 0"/>
<feBlend mode="normal" in2="shape" result="effect1_innerShadow_2699_1792"/>
</filter>
<linearGradient id="paint0_linear_2699_1792" x1="-7.13043" y1="35.934" x2="24.6529" y2="7.2644" gradientUnits="userSpaceOnUse">
<stop stop-color="#F68BFF"/>
<stop offset="1" stop-color="#6F47EB"/>
</linearGradient>
</defs>
</svg>
