<svg width="33" height="33" viewBox="0 0 33 33" fill="none" xmlns="http://www.w3.org/2000/svg">
<g id="Frame" clip-path="url(#clip0_1732_2633)">
<path id="Vector" d="M16.5 32.5C25.3366 32.5 32.5 25.3366 32.5 16.5C32.5 7.66344 25.3366 0.5 16.5 0.5C7.66344 0.5 0.5 7.66344 0.5 16.5C0.5 25.3366 7.66344 32.5 16.5 32.5Z" fill="#9969FF"/>
<path id="Vector_2" d="M11.5996 24.5888V8.42725H17.9759C19.2017 8.42725 20.246 8.66134 21.1088 9.12956C21.9716 9.59254 22.6292 10.237 23.0816 11.063C23.5393 11.8837 23.7682 12.8306 23.7682 13.9039C23.7682 14.9771 23.5367 15.9241 23.0737 16.7448C22.6108 17.5655 21.94 18.2047 21.0614 18.6624C20.1881 19.1201 19.1306 19.3489 17.8891 19.3489H13.825V16.6106H17.3367C17.9943 16.6106 18.5361 16.4975 18.9623 16.2713C19.3937 16.0398 19.7146 15.7215 19.925 15.3164C20.1408 14.9061 20.2486 14.4352 20.2486 13.9039C20.2486 13.3672 20.1408 12.899 19.925 12.4992C19.7146 12.0941 19.3937 11.7811 18.9623 11.5601C18.5309 11.3339 17.9837 11.2208 17.3209 11.2208H15.0166V24.5888H11.5996Z" fill="white"/>
<path id="Vector_3" d="M19.8344 20.9392L20.1413 21.2461M20.2947 20.172C20.3551 20.2325 20.4031 20.3042 20.4359 20.3832C20.4686 20.4622 20.4854 20.5469 20.4854 20.6323C20.4854 20.7178 20.4686 20.8025 20.4359 20.8815C20.4031 20.9605 20.3551 21.0322 20.2947 21.0926L17.3794 24.008L16.1519 24.3149L16.4587 23.1046L19.3753 20.1733C19.4903 20.0578 19.6444 19.9897 19.8073 19.9826C19.9701 19.9754 20.1296 20.0298 20.2542 20.1349L20.2947 20.172Z" stroke="white" stroke-width="0.2" stroke-linecap="round" stroke-linejoin="round"/>
</g>
<defs>
<clipPath id="clip0_1732_2633">
<rect width="32" height="32" fill="white" transform="translate(0.5 0.5)"/>
</clipPath>
</defs>
</svg>
